<svg width="28" height="23" viewBox="0 0 28 23" fill="none" xmlns="http://www.w3.org/2000/svg">
<path fill-rule="evenodd" clip-rule="evenodd" d="M21.448 22.746C21.8236 23.0082 22.3078 23.0738 22.7394 22.9128C23.1711 22.7506 23.4884 22.3872 23.5841 21.9468C24.5979 17.2502 27.0572 5.36263 27.98 1.09037C28.05 0.768371 27.9333 0.433721 27.6767 0.218671C27.42 0.00362053 27.0642 -0.0584797 26.7469 0.0576705C21.8551 1.84247 6.79031 7.41423 0.632783 9.66018C0.241959 9.80278 -0.0123689 10.1731 0.000464152 10.579C0.0144638 10.9861 0.292124 11.3392 0.692282 11.4576C3.45372 12.2718 7.07847 13.4046 7.07847 13.4046C7.07847 13.4046 8.77243 18.4473 9.65558 21.0118C9.76641 21.3338 10.0219 21.5868 10.3591 21.6742C10.6951 21.7605 11.0544 21.6696 11.3052 21.4362C12.7238 20.116 14.9171 18.0747 14.9171 18.0747C14.9171 18.0747 19.0844 21.0866 21.448 22.746ZM8.60327 12.7675L10.5621 19.1362L10.9972 15.1031C10.9972 15.1031 18.5652 8.37448 22.8794 4.53923C23.0054 4.42653 23.0229 4.23793 22.9179 4.10568C22.8141 3.97343 22.6228 3.94238 22.4793 4.03208C17.4791 7.17963 8.60327 12.7675 8.60327 12.7675Z" fill="#0055AA"/>
</svg>
