<svg width="33" height="20" viewBox="0 0 33 20" fill="none" xmlns="http://www.w3.org/2000/svg">
<path d="M17.707 19.6713C18.5262 19.6713 18.8612 19.1251 18.8518 18.4404C18.8101 15.8614 19.8124 14.473 21.6218 16.2825C23.6236 18.2843 24.038 19.6713 26.4689 19.6713H30.7739C31.8609 19.6713 32.2887 19.3215 32.2887 18.7726C32.2887 17.6116 30.3771 15.5627 28.7573 14.0587C26.4891 11.9533 26.3828 11.9035 28.3362 9.36894C30.7591 6.22226 33.9287 2.19037 31.1251 2.19037H25.7694C24.7308 2.19037 24.6555 2.77558 24.2855 3.64734C22.9469 6.80478 20.4029 10.8945 19.437 10.2689C18.4267 9.61648 18.8895 7.03214 18.9662 3.19128C18.9863 2.17692 18.981 1.48139 17.4312 1.12085C16.585 0.925781 15.7616 0.845062 14.9975 0.845062C11.9396 0.845062 9.83017 2.12714 11.0288 2.35046C13.1423 2.74464 12.9392 7.31734 12.4468 9.29226C11.5885 12.7309 8.36244 6.56935 7.01847 3.5007C6.69426 2.76347 6.5947 2.19037 5.43774 2.19037H1.05876C0.396866 2.19037 0 2.40562 0 2.88455C0 3.69443 3.98211 11.925 7.78396 16.0282C11.4916 20.0305 15.1562 19.6713 17.707 19.6713Z" fill="#0055AA"/>
</svg>
